<svg xmlns="http://www.w3.org/2000/svg" version="1.1" xmlns:xlink="http://www.w3.org/1999/xlink" xmlns:svgjs="http://svgjs.dev/svgjs" width="2000" height="677" viewBox="0 0 2000 677"><g transform="matrix(1,0,0,1,-2.462184873949809,-0.9595495867769159)"><svg viewBox="0 0 357 121" data-background-color="#ffffff" preserveAspectRatio="xMidYMid meet" height="677" width="2000" xmlns="http://www.w3.org/2000/svg" xmlns:xlink="http://www.w3.org/1999/xlink"><g id="tight-bounds" transform="matrix(1,0,0,1,0.43950000000003797,0.17150000000000887)"><svg viewBox="0 0 356.12052 120.65662007513242" height="120.65662007513242" width="356.12052"><g><svg viewBox="0 0 356.12052 120.65662007513242" height="120.65662007513242" width="356.12052"><g><svg viewBox="0 0 356.12052 120.65662007513242" height="120.65662007513242" width="356.12052"><g><path d="M0 120.657v-120.657h356.121v120.657z" fill="#27292a" stroke="transparent" stroke-width="0" rx="0%" data-fill-palette-color="tertiary"></path><path d="M3.283 117.373v-114.09h349.554v114.09z" fill="#ffffff" stroke="transparent" stroke-width="0" rx="0%" data-fill-palette-color="quaternary"></path><path d="M9.85 110.807v-100.957h336.421v100.957z" fill="#27292a" stroke="transparent" stroke-width="0" data-fill-palette-color="tertiary"></path></g><g transform="matrix(1,0,0,1,19.69974,19.69974)" id="textblocktransform"><svg viewBox="0 0 316.72104 81.25714007513243" height="81.25714007513243" width="316.72104" id="textblock"><g><svg viewBox="0 0 316.72104 51.63260880466471" height="51.63260880466471" width="316.72104"><g transform="matrix(1,0,0,1,0,0)"><svg width="316.72104" viewBox="4.45 -32.9 205.78 33.55" height="51.63260880466471" data-palette-color="#ffffff"><path d="M8.5-27.1L8.5-14.25 13.35-14.25Q17.35-14.25 19.55-15.93 21.75-17.6 21.75-21L21.75-21Q21.75-24.4 19.63-25.98 17.5-27.55 13.55-27.55L13.55-27.55Q12.2-27.55 10.88-27.43 9.55-27.3 8.5-27.1L8.5-27.1ZM13.6-10.85L13.6-10.85 4.45-10.85 4.45-28.2Q4.45-29 4.88-29.43 5.3-29.85 6.1-30.1L6.1-30.1Q7.55-30.55 9.63-30.75 11.7-30.95 13.65-30.95L13.65-30.95Q20-30.95 22.93-28.28 25.85-25.6 25.85-21.05L25.85-21.05Q25.85-17.95 24.53-15.65 23.2-13.35 20.5-12.1 17.8-10.85 13.6-10.85ZM4.45-1.6L4.45-12.8 8.55-12.8 8.55-0.1Q8.25 0 7.75 0.13 7.25 0.25 6.65 0.25L6.65 0.25Q5.55 0.25 5-0.2 4.45-0.65 4.45-1.6L4.45-1.6ZM31.75-30.4L31.75-30.4Q31.75-31.45 32.5-32.18 33.25-32.9 34.35-32.9L34.35-32.9Q35.5-32.9 36.2-32.18 36.9-31.45 36.9-30.4L36.9-30.4Q36.9-29.35 36.2-28.63 35.5-27.9 34.35-27.9L34.35-27.9Q33.25-27.9 32.5-28.63 31.75-29.35 31.75-30.4ZM32.35-1.55L32.35-13.2 36.35-13.2 36.35-0.1Q36.1 0 35.6 0.13 35.1 0.25 34.5 0.25L34.5 0.25Q33.45 0.25 32.9-0.18 32.35-0.6 32.35-1.55L32.35-1.55ZM36.35-21.5L36.35-11.25 32.35-11.25 32.35-23Q32.6-23.1 33.12-23.23 33.65-23.35 34.25-23.35L34.25-23.35Q35.3-23.35 35.82-22.93 36.35-22.5 36.35-21.5L36.35-21.5ZM54.85-20.4L54.85-20.4Q51.45-20.4 49.2-18.1 46.95-15.8 46.95-11.5L46.95-11.5Q46.95-7.25 49.12-4.95 51.3-2.65 54.85-2.65L54.85-2.65Q56.95-2.65 58.34-3.23 59.75-3.8 60.85-4.55L60.85-4.55Q61.4-4.25 61.75-3.8 62.1-3.35 62.1-2.7L62.1-2.7Q62.1-1.3 60.02-0.33 57.95 0.65 54.85 0.65L54.85 0.65Q51.4 0.65 48.67-0.68 45.95-2 44.4-4.7 42.85-7.4 42.85-11.5L42.85-11.5Q42.85-15.55 44.45-18.28 46.05-21 48.77-22.38 51.5-23.75 54.75-23.75L54.75-23.75Q57.84-23.75 59.87-22.7 61.9-21.65 61.9-20.3L61.9-20.3Q61.9-19.7 61.55-19.25 61.2-18.8 60.65-18.55L60.65-18.55Q59.55-19.3 58.22-19.85 56.9-20.4 54.85-20.4ZM68.09-6.05L68.09-13.2 72.09-13.2 72.09-6.3Q72.09-4.3 73.24-3.48 74.39-2.65 76.39-2.65L76.39-2.65Q77.24-2.65 78.29-2.95 79.34-3.25 80.04-3.65L80.04-3.65Q80.34-3.35 80.59-2.9 80.84-2.45 80.84-1.85L80.84-1.85Q80.84-0.75 79.54-0.05 78.24 0.65 75.94 0.65L75.94 0.65Q72.44 0.65 70.27-0.9 68.09-2.45 68.09-6.05L68.09-6.05ZM79.24-19.3L70.14-19.3 70.14-22.6 80.29-22.6Q80.44-22.4 80.59-21.95 80.74-21.5 80.74-21L80.74-21Q80.74-20.2 80.34-19.75 79.94-19.3 79.24-19.3L79.24-19.3ZM72.09-28.35L72.09-11.7 68.09-11.7 68.09-29.8Q68.34-29.9 68.87-30.03 69.39-30.15 69.99-30.15L69.99-30.15Q71.04-30.15 71.57-29.73 72.09-29.3 72.09-28.35L72.09-28.35ZM108.09-11.55L108.09-11.55Q108.09-7.85 106.69-5.1 105.29-2.35 102.74-0.85 100.19 0.65 96.74 0.65L96.74 0.65Q93.29 0.65 90.72-0.85 88.14-2.35 86.74-5.1 85.34-7.85 85.34-11.55L85.34-11.55Q85.34-15.3 86.77-18.03 88.19-20.75 90.77-22.25 93.34-23.75 96.74-23.75L96.74-23.75Q100.14-23.75 102.69-22.25 105.24-20.75 106.67-18.03 108.09-15.3 108.09-11.55ZM96.74-20.45L96.74-20.45Q93.39-20.45 91.42-18.07 89.44-15.7 89.44-11.55L89.44-11.55Q89.44-7.35 91.37-5 93.29-2.65 96.74-2.65L96.74-2.65Q100.14-2.65 102.07-5.03 103.99-7.4 103.99-11.55L103.99-11.55Q103.99-15.7 102.07-18.07 100.14-20.45 96.74-20.45ZM130.59-6.15L130.59-6.15Q130.59-2.95 128.24-1.15 125.89 0.65 121.44 0.65L121.44 0.65Q117.64 0.65 115.24-0.53 112.84-1.7 112.84-3.1L112.84-3.1Q112.84-3.7 113.16-4.28 113.49-4.85 114.14-5.2L114.14-5.2Q115.49-4.25 117.29-3.45 119.09-2.65 121.39-2.65L121.39-2.65Q126.59-2.65 126.59-6.15L126.59-6.15Q126.59-7.6 125.71-8.53 124.84-9.45 123.14-9.85L123.14-9.85 118.99-10.95Q115.94-11.7 114.54-13.28 113.14-14.85 113.14-17.2L113.14-17.2Q113.14-19.85 115.29-21.8 117.44-23.75 121.84-23.75L121.84-23.75Q124.19-23.75 125.94-23.28 127.69-22.8 128.66-22.03 129.64-21.25 129.64-20.35L129.64-20.35Q129.64-19.7 129.31-19.2 128.99-18.7 128.44-18.45L128.44-18.45Q127.84-18.85 126.91-19.33 125.99-19.8 124.74-20.13 123.49-20.45 121.99-20.45L121.99-20.45Q119.79-20.45 118.44-19.6 117.09-18.75 117.09-17.2L117.09-17.2Q117.09-16.1 117.86-15.28 118.64-14.45 120.34-14.05L120.34-14.05 123.79-13.2Q127.19-12.4 128.89-10.68 130.59-8.95 130.59-6.15ZM136.69-6.05L136.69-13.2 140.69-13.2 140.69-6.3Q140.69-4.3 141.84-3.48 142.99-2.65 144.99-2.65L144.99-2.65Q145.84-2.65 146.89-2.95 147.94-3.25 148.64-3.65L148.64-3.65Q148.94-3.35 149.19-2.9 149.44-2.45 149.44-1.85L149.44-1.85Q149.44-0.75 148.14-0.05 146.84 0.65 144.54 0.65L144.54 0.65Q141.04 0.65 138.86-0.9 136.69-2.45 136.69-6.05L136.69-6.05ZM147.84-19.3L138.74-19.3 138.74-22.6 148.89-22.6Q149.04-22.4 149.19-21.95 149.34-21.5 149.34-21L149.34-21Q149.34-20.2 148.94-19.75 148.54-19.3 147.84-19.3L147.84-19.3ZM140.69-28.35L140.69-11.7 136.69-11.7 136.69-29.8Q136.94-29.9 137.46-30.03 137.99-30.15 138.59-30.15L138.59-30.15Q139.64-30.15 140.16-29.73 140.69-29.3 140.69-28.35L140.69-28.35ZM154.88-30.4L154.88-30.4Q154.88-31.45 155.63-32.18 156.38-32.9 157.48-32.9L157.48-32.9Q158.63-32.9 159.33-32.18 160.03-31.45 160.03-30.4L160.03-30.4Q160.03-29.35 159.33-28.63 158.63-27.9 157.48-27.9L157.48-27.9Q156.38-27.9 155.63-28.63 154.88-29.35 154.88-30.4ZM155.48-1.55L155.48-13.2 159.48-13.2 159.48-0.1Q159.23 0 158.73 0.13 158.23 0.25 157.63 0.25L157.63 0.25Q156.58 0.25 156.03-0.18 155.48-0.6 155.48-1.55L155.48-1.55ZM159.48-21.5L159.48-11.25 155.48-11.25 155.48-23Q155.73-23.1 156.26-23.23 156.78-23.35 157.38-23.35L157.38-23.35Q158.43-23.35 158.96-22.93 159.48-22.5 159.48-21.5L159.48-21.5ZM177.98-20.4L177.98-20.4Q174.58-20.4 172.33-18.1 170.08-15.8 170.08-11.5L170.08-11.5Q170.08-7.25 172.26-4.95 174.43-2.65 177.98-2.65L177.98-2.65Q180.08-2.65 181.48-3.23 182.88-3.8 183.98-4.55L183.98-4.55Q184.53-4.25 184.88-3.8 185.23-3.35 185.23-2.7L185.23-2.7Q185.23-1.3 183.16-0.33 181.08 0.65 177.98 0.65L177.98 0.65Q174.53 0.65 171.81-0.68 169.08-2 167.53-4.7 165.98-7.4 165.98-11.5L165.98-11.5Q165.98-15.55 167.58-18.28 169.18-21 171.91-22.38 174.63-23.75 177.88-23.75L177.88-23.75Q180.98-23.75 183.01-22.7 185.03-21.65 185.03-20.3L185.03-20.3Q185.03-19.7 184.68-19.25 184.33-18.8 183.78-18.55L183.78-18.55Q182.68-19.3 181.36-19.85 180.03-20.4 177.98-20.4ZM207.13-19.15L197.33-10.55 194.83-12.5 206.23-23.55Q207.43-23.5 208.1-22.98 208.78-22.45 208.78-21.6L208.78-21.6Q208.78-20.9 208.35-20.35 207.93-19.8 207.13-19.15L207.13-19.15ZM205.38-1.15L194.73-11.85 197.53-13.5 210.23-2.1Q210.13-1 209.55-0.35 208.98 0.3 208.03 0.3L208.03 0.3Q207.28 0.3 206.65-0.1 206.03-0.5 205.38-1.15L205.38-1.15ZM191.28-1.55L191.28-13.4 195.28-12.8 195.28-0.1Q195.03 0 194.53 0.13 194.03 0.25 193.43 0.25L193.43 0.25Q192.38 0.25 191.83-0.18 191.28-0.6 191.28-1.55L191.28-1.55ZM195.28-30.95L195.28-10.85 191.28-11.45 191.28-32.4Q191.53-32.5 192.05-32.63 192.58-32.75 193.18-32.75L193.18-32.75Q194.23-32.75 194.75-32.33 195.28-31.9 195.28-30.95L195.28-30.95Z" opacity="1" transform="matrix(1,0,0,1,0,0)" fill="#ffffff" class="wordmark-text-0" data-fill-palette-color="quaternary" id="text-0"></path></svg></g></svg></g><g transform="matrix(1,0,0,1,0,58.199188804664715)"><svg viewBox="0 0 316.72104 23.05795127046771" height="23.05795127046771" width="316.72104"><g transform="matrix(1,0,0,1,0,0)"><svg width="316.72104" viewBox="1.75 -34.25 595.45 43.35" height="23.05795127046771" data-palette-color="#ffffff"><path d="M1.75-7.25L1.9-7.35Q5.8-6.25 10.55-6.25L10.55-6.25Q12.85-6.25 14-6.4 15.15-6.55 15.55-6.9 15.95-7.25 15.95-7.85L15.95-7.85Q15.95-8.7 15.33-8.9 14.7-9.1 12.85-9.45L12.85-9.45 8.9-10.2Q5.1-10.95 3.43-12.58 1.75-14.2 1.75-17.45L1.75-17.45Q1.75-21.85 4.38-23.45 7-25.05 12.75-25.05L12.75-25.05Q16.2-25.05 18.82-24.68 21.45-24.3 23.2-23.75L23.2-23.75 23.1-17.7 22.95-17.55Q18.9-18.85 14.1-18.85L14.1-18.85Q11.75-18.85 10.83-18.53 9.9-18.2 9.9-17.25L9.9-17.25Q9.9-16.75 10.18-16.45 10.45-16.15 11.45-15.88 12.45-15.6 14.6-15.2L14.6-15.2 18.25-14.5Q21.3-13.85 22.75-12.35 24.2-10.85 24.2-7.6L24.2-7.6Q24.2-4.75 23.15-3.08 22.1-1.4 19.63-0.7 17.15 0 12.8 0L12.8 0Q9.5 0 6.73-0.33 3.95-0.65 1.75-1.1L1.75-1.1 1.75-7.25ZM28.95-7.75L28.95-7.75 28.95-18.25 25.95-18.25 25.95-24.75 29.7-24.75 31.2-30.7 36.95-30.7 36.95-24.75 42.4-24.75 42.4-18.25 36.95-18.25 36.95-9.5Q36.95-8.1 37.3-7.58 37.65-7.05 38.9-7.05L38.9-7.05Q39.7-7.05 40.6-7.13 41.5-7.2 42.4-7.3L42.4-7.3 42.55-7.2 42.55-0.7Q40.15 0 36.2 0L36.2 0Q32.25 0 30.6-1.8 28.95-3.6 28.95-7.75ZM54.6-33.85L54.6-33.85Q54.75-32.05 54.75-30.85L54.75-30.85Q54.75-30.15 54.73-29.43 54.7-28.7 54.6-27.8L54.6-27.8Q53.55-27.6 52.55-27.5 51.55-27.4 50.55-27.4L50.55-27.4Q49.6-27.4 48.63-27.5 47.65-27.6 46.65-27.8L46.65-27.8Q46.55-28.65 46.5-29.38 46.45-30.1 46.45-30.8L46.45-30.8Q46.45-31.45 46.5-32.2 46.55-32.95 46.65-33.85L46.65-33.85Q47.65-34.1 48.68-34.18 49.7-34.25 50.7-34.25L50.7-34.25Q51.65-34.25 52.63-34.18 53.6-34.1 54.6-33.85ZM54.6-24.8L54.6-0.45 46.6-0.45 46.6-24.8 54.6-24.8ZM78.9-7.65L79.1-7.5 79.1-1Q77.85-0.5 75.4-0.25 72.95 0 70.2 0L70.2 0Q66.25 0 63.63-1.1 61-2.2 59.73-4.9 58.45-7.6 58.4-12.4L58.4-12.4Q58.4-17.35 59.78-20.1 61.15-22.85 63.8-23.95 66.45-25.05 70.15-25.05L70.15-25.05Q72.35-25.05 74.8-24.75 77.25-24.45 78.8-23.95L78.8-23.95 78.85-17.25 78.7-17.15Q77.2-17.45 75.5-17.6 73.8-17.75 72.15-17.75L72.15-17.75Q68.8-17.75 67.5-16.5 66.2-15.25 66.2-12.3L66.2-12.3Q66.2-10.05 66.75-8.95 67.3-7.85 68.6-7.5 69.9-7.15 72.15-7.15L72.15-7.15Q73.9-7.15 75.5-7.3 77.1-7.45 78.9-7.65L78.9-7.65ZM91.6-11.75L91.6-0.45 83.6-0.45 83.6-34.1 91.6-34.1 91.6-14.5 91.7-14.5 98-24.8 106.8-24.8 106.8-24.6 99.4-13.1 99.4-12.9 108-0.45 98.8-0.45 91.75-11.7 91.6-11.75ZM131.9-6.8L131.9-1.25Q130.5-0.75 128.03-0.38 125.55 0 122.15 0L122.15 0Q117.85 0 114.83-1.13 111.8-2.25 110.25-4.98 108.7-7.7 108.7-12.55L108.7-12.55Q108.7-19.15 111.73-22.1 114.75-25.05 121.1-25.05L121.1-25.05Q125.65-25.05 128.28-23.75 130.9-22.45 132.03-20.08 133.15-17.7 133.15-14.45L133.15-14.45Q133.15-13.5 133.08-12.4 133-11.3 132.8-10.25L132.8-10.25 132.6-10.05 116.15-10.05Q116.5-7.85 118.23-7.15 119.95-6.45 123.85-6.45L123.85-6.45Q126.45-6.45 128.18-6.58 129.9-6.7 131.7-6.95L131.7-6.95 131.9-6.8ZM116-15.3L126.2-15.3Q126.2-16.5 125.83-17.38 125.45-18.25 124.35-18.73 123.25-19.2 121.1-19.2L121.1-19.2Q117.95-19.2 116.98-18.13 116-17.05 116-15.3L116-15.3ZM145.5-9.25L145.4-0.45 137.4-0.45 137.4-24.8 143.9-24.8 144.55-19.8 144.7-19.8Q145.15-22.6 146.85-23.83 148.55-25.05 151.9-25.05L151.9-25.05Q153.25-25.05 154.35-24.93 155.45-24.8 156.2-24.7L156.2-24.7 156.2-16.9 156.1-16.8Q155.3-17 154.28-17.15 153.25-17.3 151.95-17.3L151.95-17.3Q150.1-17.3 148.63-16.7 147.15-16.1 146.33-14.38 145.5-12.65 145.5-9.25L145.5-9.25 145.5-9.25ZM176.5-1.95L176.5-2.1Q174.85-2.8 174.1-3.9 173.35-5 173.35-6.55L173.35-6.55Q173.35-7.95 174.13-9 174.9-10.05 176.2-10.65L176.2-10.65 176.2-10.8Q174.95-11.8 174.38-13.33 173.8-14.85 173.8-16.85L173.8-16.85Q173.8-20.85 176.4-22.95 179-25.05 185.4-25.05L185.4-25.05Q190.65-25.05 193.4-23.55L193.4-23.55 193.65-23.55Q194.45-24.85 195.7-25.7 196.95-26.55 198.75-26.55L198.75-26.55Q199.3-26.55 199.75-26.53 200.2-26.5 200.6-26.45L200.6-26.45 200.6-20.3Q199.65-20.5 198.35-20.5L198.35-20.5Q197.3-20.5 196.35-20.3L196.35-20.3Q196.9-18.85 196.9-16.85L196.9-16.85Q196.9-12.55 194.3-10.65 191.7-8.75 185.4-8.75L185.4-8.75Q183.95-8.75 182.7-8.85 181.45-8.95 180.4-9.15L180.4-9.15Q180.2-8.75 180.2-8.2L180.2-8.2Q180.2-7.4 180.73-6.88 181.25-6.35 182.55-6.35L182.55-6.35 189.75-6.35Q194.35-6.35 196.63-4.9 198.9-3.45 198.9 0.7L198.9 0.7Q198.9 4.8 195.7 6.95 192.5 9.1 184.9 9.1L184.9 9.1Q178.65 9.1 175.8 7.43 172.95 5.75 172.95 2.55L172.95 2.55Q172.95 0.8 173.9-0.38 174.85-1.55 176.5-1.95L176.5-1.95ZM185.4-14.1L185.4-14.1Q187.75-14.1 188.7-14.68 189.65-15.25 189.65-16.75L189.65-16.75Q189.65-18.25 188.7-18.95 187.75-19.65 185.4-19.65L185.4-19.65Q183-19.65 182.05-18.95 181.1-18.25 181.1-16.75L181.1-16.75Q181.1-15.25 182.05-14.68 183-14.1 185.4-14.1ZM185.85 3.2L185.85 3.2Q188.5 3.2 189.75 2.95 191 2.7 191.4 2.2 191.8 1.7 191.8 0.95L191.8 0.95Q191.8 0.1 191.3-0.43 190.8-0.95 189.8-0.95L189.8-0.95 182.15-0.95Q181.15-0.95 180.65-0.43 180.15 0.1 180.15 0.95L180.15 0.95Q180.15 1.7 180.58 2.2 181 2.7 182.23 2.95 183.45 3.2 185.85 3.2ZM224.55-6.8L224.55-1.25Q223.15-0.75 220.68-0.38 218.2 0 214.8 0L214.8 0Q210.5 0 207.48-1.13 204.45-2.25 202.9-4.98 201.35-7.7 201.35-12.55L201.35-12.55Q201.35-19.15 204.38-22.1 207.4-25.05 213.75-25.05L213.75-25.05Q218.3-25.05 220.93-23.75 223.55-22.45 224.68-20.08 225.8-17.7 225.8-14.45L225.8-14.45Q225.8-13.5 225.73-12.4 225.65-11.3 225.45-10.25L225.45-10.25 225.25-10.05 208.8-10.05Q209.15-7.85 210.88-7.15 212.6-6.45 216.5-6.45L216.5-6.45Q219.1-6.45 220.83-6.58 222.55-6.7 224.35-6.95L224.35-6.95 224.55-6.8ZM208.65-15.3L218.85-15.3Q218.85-16.5 218.48-17.38 218.1-18.25 217-18.73 215.9-19.2 213.75-19.2L213.75-19.2Q210.6-19.2 209.63-18.13 208.65-17.05 208.65-15.3L208.65-15.3ZM238.05-13L238.05-0.45 230.05-0.45 230.05-24.8 237.65-24.8 238.05-20.35 238.2-20.35Q238.9-22.6 240.7-23.83 242.5-25.05 245.7-25.05L245.7-25.05Q250.05-25.05 252.13-22.6 254.2-20.15 254.2-14.1L254.2-14.1 254.2-0.45 246.2-0.45 246.15-12.55Q246.15-15.35 245.3-16.55 244.45-17.75 242.1-17.75L242.1-17.75Q239.9-17.75 239-16.68 238.1-15.6 238.05-13L238.05-13ZM281.15-6.8L281.15-1.25Q279.75-0.75 277.28-0.38 274.8 0 271.4 0L271.4 0Q267.1 0 264.08-1.13 261.05-2.25 259.5-4.98 257.95-7.7 257.95-12.55L257.95-12.55Q257.95-19.15 260.98-22.1 264-25.05 270.35-25.05L270.35-25.05Q274.9-25.05 277.53-23.75 280.15-22.45 281.28-20.08 282.4-17.7 282.4-14.45L282.4-14.45Q282.4-13.5 282.33-12.4 282.25-11.3 282.05-10.25L282.05-10.25 281.85-10.05 265.4-10.05Q265.75-7.85 267.48-7.15 269.2-6.45 273.1-6.45L273.1-6.45Q275.7-6.45 277.43-6.58 279.15-6.7 280.95-6.95L280.95-6.95 281.15-6.8ZM265.25-15.3L275.45-15.3Q275.45-16.5 275.08-17.38 274.7-18.25 273.6-18.73 272.5-19.2 270.35-19.2L270.35-19.2Q267.2-19.2 266.23-18.13 265.25-17.05 265.25-15.3L265.25-15.3ZM294.75-9.25L294.65-0.45 286.65-0.45 286.65-24.8 293.15-24.8 293.8-19.8 293.95-19.8Q294.4-22.6 296.1-23.83 297.8-25.05 301.15-25.05L301.15-25.05Q302.5-25.05 303.6-24.93 304.7-24.8 305.45-24.7L305.45-24.7 305.45-16.9 305.35-16.8Q304.55-17 303.53-17.15 302.5-17.3 301.2-17.3L301.2-17.3Q299.35-17.3 297.88-16.7 296.4-16.1 295.58-14.38 294.75-12.65 294.75-9.25L294.75-9.25 294.75-9.25ZM318.2-25.05L318.2-25.05Q323-25.05 325.95-24.05 328.9-23.05 330.28-20.38 331.65-17.7 331.65-12.65L331.65-12.65 331.65-0.45 324.4-0.45 324.15-2.75 324-2.75Q323.05-1.5 321.05-0.75 319.05 0 315.85 0L315.85 0Q307.2 0 307.2-8.1L307.2-8.1Q307.2-11.55 309.48-13.53 311.75-15.5 316.65-15.5L316.65-15.5 324.05-15.5Q323.7-17.6 322.25-18.32 320.8-19.05 317.3-19.05L317.3-19.05Q315.1-19.05 312.98-18.73 310.85-18.4 309.25-18L309.25-18 309.1-18.1 309.15-23.9Q310.15-24.2 311.7-24.48 313.25-24.75 314.98-24.9 316.7-25.05 318.2-25.05ZM317.9-5.9L317.9-5.9Q321-5.9 322.55-6.68 324.1-7.45 324.15-9.15L324.15-9.15 324.15-10.4 318.5-10.4Q316.3-10.4 315.43-9.78 314.55-9.15 314.55-8.1L314.55-8.1Q314.55-6.85 315.45-6.38 316.35-5.9 317.9-5.9ZM337.4-7.75L337.4-7.75 337.4-18.25 334.4-18.25 334.4-24.75 338.15-24.75 339.65-30.7 345.4-30.7 345.4-24.75 350.85-24.75 350.85-18.25 345.4-18.25 345.4-9.5Q345.4-8.1 345.75-7.58 346.1-7.05 347.35-7.05L347.35-7.05Q348.15-7.05 349.05-7.13 349.95-7.2 350.85-7.3L350.85-7.3 351-7.2 351-0.7Q348.6 0 344.65 0L344.65 0Q340.7 0 339.05-1.8 337.4-3.6 337.4-7.75ZM353.75-12.45L353.75-12.45Q353.75-19.15 356.6-22.1 359.45-25.05 366.25-25.05L366.25-25.05Q370.8-25.05 373.55-23.75 376.3-22.45 377.53-19.68 378.75-16.9 378.75-12.45L378.75-12.45Q378.75-8.05 377.53-5.3 376.3-2.55 373.55-1.28 370.8 0 366.25 0L366.25 0Q359.45 0 356.6-2.93 353.75-5.85 353.75-12.45ZM366.25-6.85L366.25-6.85Q369.15-6.85 370.18-8.13 371.2-9.4 371.2-12.6L371.2-12.6Q371.2-15.65 370.18-16.98 369.15-18.3 366.25-18.3L366.25-18.3Q363.45-18.3 362.38-16.98 361.3-15.65 361.3-12.6L361.3-12.6Q361.3-9.4 362.38-8.13 363.45-6.85 366.25-6.85ZM391.1-9.25L391-0.45 383-0.45 383-24.8 389.5-24.8 390.15-19.8 390.3-19.8Q390.75-22.6 392.45-23.83 394.15-25.05 397.5-25.05L397.5-25.05Q398.85-25.05 399.95-24.93 401.05-24.8 401.8-24.7L401.8-24.7 401.8-16.9 401.7-16.8Q400.9-17 399.88-17.15 398.85-17.3 397.55-17.3L397.55-17.3Q395.7-17.3 394.23-16.7 392.75-16.1 391.93-14.38 391.1-12.65 391.1-9.25L391.1-9.25 391.1-9.25ZM428.3 0L428.3 0Q423.7 0 421.75-2.45 419.8-4.9 419.8-9.45L419.8-9.45 419.8-24.8 427.8-24.8 427.85-11.4Q427.85-9.15 428.65-8.22 429.45-7.3 431.9-7.3L431.9-7.3Q434.25-7.3 435.08-8.13 435.9-8.95 435.95-10.95L435.95-10.95 435.95-24.8 443.95-24.8 443.95-0.45 436.35-0.45 435.95-3.2 435.8-3.2Q435.15-1.75 433.15-0.88 431.15 0 428.3 0ZM448.7-7.25L448.85-7.35Q452.75-6.25 457.5-6.25L457.5-6.25Q459.8-6.25 460.95-6.4 462.1-6.55 462.5-6.9 462.9-7.25 462.9-7.85L462.9-7.85Q462.9-8.7 462.28-8.9 461.65-9.1 459.8-9.45L459.8-9.45 455.85-10.2Q452.05-10.95 450.38-12.58 448.7-14.2 448.7-17.45L448.7-17.45Q448.7-21.85 451.33-23.45 453.95-25.05 459.7-25.05L459.7-25.05Q463.15-25.05 465.78-24.68 468.4-24.3 470.15-23.75L470.15-23.75 470.05-17.7 469.9-17.55Q465.85-18.85 461.05-18.85L461.05-18.85Q458.7-18.85 457.78-18.53 456.85-18.2 456.85-17.25L456.85-17.25Q456.85-16.75 457.13-16.45 457.4-16.15 458.4-15.88 459.4-15.6 461.55-15.2L461.55-15.2 465.2-14.5Q468.25-13.85 469.7-12.35 471.15-10.85 471.15-7.6L471.15-7.6Q471.15-4.75 470.1-3.08 469.05-1.4 466.58-0.7 464.1 0 459.75 0L459.75 0Q456.45 0 453.68-0.33 450.9-0.65 448.7-1.1L448.7-1.1 448.7-7.25ZM482.95-33.85L482.95-33.85Q483.1-32.05 483.1-30.85L483.1-30.85Q483.1-30.15 483.08-29.43 483.05-28.7 482.95-27.8L482.95-27.8Q481.9-27.6 480.9-27.5 479.9-27.4 478.9-27.4L478.9-27.4Q477.95-27.4 476.98-27.5 476-27.6 475-27.8L475-27.8Q474.9-28.65 474.85-29.38 474.8-30.1 474.8-30.8L474.8-30.8Q474.8-31.45 474.85-32.2 474.9-32.95 475-33.85L475-33.85Q476-34.1 477.03-34.18 478.05-34.25 479.05-34.25L479.05-34.25Q480-34.25 480.98-34.18 481.95-34.1 482.95-33.85ZM482.95-24.8L482.95-0.45 474.95-0.45 474.95-24.8 482.95-24.8ZM496.5-13L496.5-0.45 488.5-0.45 488.5-24.8 496.1-24.8 496.5-20.35 496.65-20.35Q497.35-22.6 499.15-23.83 500.95-25.05 504.15-25.05L504.15-25.05Q508.5-25.05 510.58-22.6 512.65-20.15 512.65-14.1L512.65-14.1 512.65-0.45 504.65-0.45 504.6-12.55Q504.6-15.35 503.75-16.55 502.9-17.75 500.55-17.75L500.55-17.75Q498.35-17.75 497.45-16.68 496.55-15.6 496.5-13L496.5-13ZM519.95-1.95L519.95-2.1Q518.3-2.8 517.55-3.9 516.8-5 516.8-6.55L516.8-6.55Q516.8-7.95 517.58-9 518.35-10.05 519.65-10.65L519.65-10.65 519.65-10.8Q518.4-11.8 517.83-13.33 517.25-14.85 517.25-16.85L517.25-16.85Q517.25-20.85 519.85-22.95 522.45-25.05 528.85-25.05L528.85-25.05Q534.1-25.05 536.85-23.55L536.85-23.55 537.1-23.55Q537.9-24.85 539.15-25.7 540.4-26.55 542.2-26.55L542.2-26.55Q542.75-26.55 543.2-26.53 543.65-26.5 544.05-26.45L544.05-26.45 544.05-20.3Q543.1-20.5 541.8-20.5L541.8-20.5Q540.75-20.5 539.8-20.3L539.8-20.3Q540.35-18.85 540.35-16.85L540.35-16.85Q540.35-12.55 537.75-10.65 535.15-8.75 528.85-8.75L528.85-8.75Q527.4-8.75 526.15-8.85 524.9-8.95 523.85-9.15L523.85-9.15Q523.65-8.75 523.65-8.2L523.65-8.2Q523.65-7.4 524.18-6.88 524.7-6.35 526-6.35L526-6.35 533.2-6.35Q537.8-6.35 540.08-4.9 542.35-3.45 542.35 0.7L542.35 0.7Q542.35 4.8 539.15 6.95 535.95 9.1 528.35 9.1L528.35 9.1Q522.1 9.1 519.25 7.43 516.4 5.75 516.4 2.55L516.4 2.55Q516.4 0.8 517.35-0.38 518.3-1.55 519.95-1.95L519.95-1.95ZM528.85-14.1L528.85-14.1Q531.2-14.1 532.15-14.68 533.1-15.25 533.1-16.75L533.1-16.75Q533.1-18.25 532.15-18.95 531.2-19.65 528.85-19.65L528.85-19.65Q526.45-19.65 525.5-18.95 524.55-18.25 524.55-16.75L524.55-16.75Q524.55-15.25 525.5-14.68 526.45-14.1 528.85-14.1ZM529.3 3.2L529.3 3.2Q531.95 3.2 533.2 2.95 534.45 2.7 534.85 2.2 535.25 1.7 535.25 0.95L535.25 0.95Q535.25 0.1 534.75-0.43 534.25-0.95 533.25-0.95L533.25-0.95 525.6-0.95Q524.6-0.95 524.1-0.43 523.6 0.1 523.6 0.95L523.6 0.95Q523.6 1.7 524.03 2.2 524.45 2.7 525.68 2.95 526.9 3.2 529.3 3.2ZM570.8-25.05L570.8-25.05Q575.6-25.05 578.55-24.05 581.5-23.05 582.88-20.38 584.25-17.7 584.25-12.65L584.25-12.65 584.25-0.45 577-0.45 576.75-2.75 576.6-2.75Q575.65-1.5 573.65-0.75 571.65 0 568.45 0L568.45 0Q559.8 0 559.8-8.1L559.8-8.1Q559.8-11.55 562.08-13.53 564.35-15.5 569.25-15.5L569.25-15.5 576.65-15.5Q576.3-17.6 574.85-18.32 573.4-19.05 569.9-19.05L569.9-19.05Q567.7-19.05 565.58-18.73 563.45-18.4 561.85-18L561.85-18 561.7-18.1 561.75-23.9Q562.75-24.2 564.3-24.48 565.85-24.75 567.58-24.9 569.3-25.05 570.8-25.05ZM570.5-5.9L570.5-5.9Q573.6-5.9 575.15-6.68 576.7-7.45 576.75-9.15L576.75-9.15 576.75-10.4 571.1-10.4Q568.9-10.4 568.03-9.78 567.15-9.15 567.15-8.1L567.15-8.1Q567.15-6.85 568.05-6.38 568.95-5.9 570.5-5.9ZM597.05-33.85L597.05-33.85Q597.2-32.05 597.2-30.85L597.2-30.85Q597.2-30.15 597.18-29.43 597.15-28.7 597.05-27.8L597.05-27.8Q596-27.6 595-27.5 594-27.4 593-27.4L593-27.4Q592.05-27.4 591.08-27.5 590.1-27.6 589.1-27.8L589.1-27.8Q589-28.65 588.95-29.38 588.9-30.1 588.9-30.8L588.9-30.8Q588.9-31.45 588.95-32.2 589-32.95 589.1-33.85L589.1-33.85Q590.1-34.1 591.13-34.18 592.15-34.25 593.15-34.25L593.15-34.25Q594.1-34.25 595.08-34.18 596.05-34.1 597.05-33.85ZM597.05-24.8L597.05-0.45 589.05-0.45 589.05-24.8 597.05-24.8Z" opacity="1" transform="matrix(1,0,0,1,0,0)" fill="#ffffff" class="slogan-text-1" data-fill-palette-color="quaternary" id="text-1"></path></svg></g></svg></g></svg></g></svg></g><g></g></svg></g><defs></defs></svg><rect width="356.12052" height="120.65662007513242" fill="none" stroke="none" visibility="hidden"></rect></g></svg></g></svg>